# xmcd
#
# Track frame offsets: 
#        150
#        15712
#        32786
#        49577
#        67289
#        82611
#        97337
#        112501
#        130879
#        149069
#        164501
#        181317
#        197817
#        213767
#
# Disc length: 3047 seconds
#
# Revision: 0
# Processed by: cddbd v1.5.2PL0 Copyright (c) Steve Scherf et al.
# Submitted via: ExactAudioCopyFreeDBPlugin 1.0
#
DISCID=c40be50e
DTITLE=Эраст Галумов - Это Кино
DYEAR=2007
DGENRE=Chanson
TTITLE0=Дуновенье ветра
TTITLE1=Около
TTITLE2=Франсуаза
TTITLE3=Облака
TTITLE4=Снег
TTITLE5=Ну а я
TTITLE6=Монгольфье
TTITLE7=Самолёт
TTITLE8=Река
TTITLE9=Три дня и три ночи
TTITLE10=Перволёд
TTITLE11=По волнам
TTITLE12=Старая школа
TTITLE13=Это кино
EXTD=
EXTT0=
EXTT1=
EXTT2=
EXTT3=
EXTT4=
EXTT5=
EXTT6=
EXTT7=
EXTT8=
EXTT9=
EXTT10=
EXTT11=
EXTT12=
EXTT13=
PLAYORDER=
